<?xml version="1.0" encoding="UTF-8"?>
<svg id="Camada_1" xmlns="http://www.w3.org/2000/svg" version="1.1" viewBox="0 0 1667 1667">
  <!-- Generator: Adobe Illustrator 29.6.1, SVG Export Plug-In . SVG Version: 2.1.1 Build 9)  -->
  <defs>
    <style>
      .st0 {
        fill-rule: evenodd;
      }
    </style>
  </defs>
  <rect x="278.04" y="381.44" width="182.33" height="1079.93"/>
  <path class="st0" d="M507.57,137.36l-1.05,532.99c29.62-45.01,68.28-91.11,101.73-138.12l223.99,18.8,2.3-386.78"/>
  <polygon class="st0" points="1384.72 981.03 1384.72 1457.25 1182.61 1457.25 1182.61 850.17 1409.19 868.73 1408.94 899.36 1383.2 909.61 1384.72 981.03"/>
  <path class="st0" d="M628.74,566.95l.22,36.62,32.13,20.1v905.97h493.78v-759.68l5.15-111.98,23.08-16.27.34-24.67-554.7-50.09ZM1069.47,882.28l-136.87-1.95-5.16,419.75-12.39,14.39,5.34-434.32-141.01-2c12.64-15.64,0-.07,12.96-15.73l128.25,1.84,2.03-165.47,12.38-13.74-2.21,179.38,148.48,2.12-11.81,15.73Z"/>
</svg>