<?xml version="1.0" encoding="UTF-8"?>
<svg id="Layer_2" data-name="Layer 2" xmlns="http://www.w3.org/2000/svg" xmlns:xlink="http://www.w3.org/1999/xlink" viewBox="0 0 162.83 162.83">
  <defs>
    <style>
      .cls-1 {
        fill: none;
      }

      .cls-2 {
        clip-path: url(#clippath);
      }
    </style>
    <clipPath id="clippath">
      <rect class="cls-1" width="162.83" height="162.83"/>
    </clipPath>
  </defs>
  <g id="Layer_1-2" data-name="Layer 1">
    <g class="cls-2">
      <path d="M36.92,71.58h16.53v-16.4h-16.53v16.4ZM36.92,95.15h16.53v-16.53h-16.53v16.53ZM36.92,118.57h16.53v-16.4h-16.53v16.4ZM60.48,71.58h16.41v-16.4h-16.41v16.4ZM60.48,95.15h16.41v-16.53h-16.41v16.53ZM60.48,118.57h16.41v-16.4h-16.41v16.4ZM83.91,71.58h16.53v-16.4h-16.53v16.4ZM83.91,95.15h16.53v-16.53h-16.53v16.53ZM83.91,118.57h16.53v-16.4h-16.53v16.4ZM107.48,71.58h16.41v-16.4h-16.41v16.4ZM107.48,95.15h16.41v-16.53h-16.41v16.53ZM107.48,118.57h16.41v-16.4h-16.41v16.4ZM131.34,44.5H30.5v-11.24h100.84v11.24ZM29.89,48.14h101.03v77.46H29.89V48.14ZM162.83,81.41C162.83,36.45,126.38,0,81.41,0S0,36.45,0,81.41s36.45,81.41,81.41,81.41,81.42-36.45,81.42-81.41"/>
    </g>
  </g>
</svg>