<?xml version="1.0" encoding="UTF-8"?>
<svg id="Layer_2" data-name="Layer 2" xmlns="http://www.w3.org/2000/svg" xmlns:xlink="http://www.w3.org/1999/xlink" viewBox="0 0 177.28 169.42">
  <defs>
    <style>
      .cls-1 {
        fill: #e3173e;
      }

      .cls-2 {
        fill: #fff;
      }

      .cls-3 {
        fill: none;
      }

      .cls-4 {
        clip-path: url(#clippath);
      }
    </style>
    <clipPath id="clippath">
      <rect class="cls-3" width="177.28" height="169.42"/>
    </clipPath>
  </defs>
  <g id="Layer_1-2" data-name="Layer 1">
    <g class="cls-4">
      <path class="cls-1" d="M169.56,161.82H43.15s-35.42,0-35.42-35.42V0h126.4S169.56,0,169.56,35.42v126.4Z"/>
      <rect class="cls-2" x="73.38" y="98.26" width="7.97" height="40.82"/>
      <rect class="cls-2" x="88.6" y="83.04" width="13.05" height="56.04"/>
      <path class="cls-2" d="M66.23,44.01s13.16-12.86,35.33-8.63c0,0,9.75,1.52,17.23,8.16,0,0,1.11,1.04,1.97.19,0,0,1.08-.85-.12-2.13,0,0-6.43-8.92-19.13-12.85,0,0-17.43-6.25-35.34,2.19,0,0-11.02,4.57-17.14,17.02,0,0-8.71,2.82-15.25,6.49,0,0-1.94.76-1.2,2.27,0,0,.63,1.07,2.31.27,0,0,6.07-2.09,11.92-3.4,0,0-4.71,12.21.21,27.34,2.18,6.75,6.17,13.61,12.27,19.13,0,0,.99,1.04,2.07.33,0,0,.94-.69.28-1.8,0,0-4.86-7.32-6.75-17.72-1.57-8.49-.83-20.21,5.06-29.49,0,0,22.43-3.13,41.55,4.07,0,0,32.48,10.6,24.31,30.26,0,0-2.38,6.83-11.34,13,0,0-1.5.87-.69,2.13,0,0,.68.98,2.22.36,0,0,13.73-4.47,19.66-15.5,0,0,12.02-18.39-16.32-33.4,0,0-7.8-4.17-17.82-6.39,0,0-18.05-4.46-35.28-1.87"/>
    </g>
  </g>
</svg>