<?xml version="1.0" encoding="UTF-8"?>
<svg id="Layer_2" data-name="Layer 2" xmlns="http://www.w3.org/2000/svg" viewBox="0 0 142.03 68.49">
  <defs>
    <style>
      .cls-1 {
        fill: #231f20;
      }
    </style>
  </defs>
  <g id="Layer_1-2" data-name="Layer 1">
    <g>
      <path class="cls-1" d="M55.05,32.13v1.91h-5.48c-.12,0-.17.06-.17.18v.82h5.62v1.39h-5.62v.87c0,.13.05.19.17.19h5.48v1.84h-6.56c-.67,0-1.01-.33-1.01-1v-5.23c0-.65.34-.97,1.02-.97h6.55Z"/>
      <path class="cls-1" d="M73.54,32.36c.44-8.05,3.65-15.36,8.7-21l4.8,4.8c-.96.63-1.91,1.4-2.83,2.32l-.04.04-.04.04c-3.97,4.23-4.76,9.07-3.66,13.79h-6.93Z"/>
      <path class="cls-1" d="M82.24,57.12c-5.05-5.63-8.26-12.95-8.7-20.99h8.2c.8,1.81,1.84,3.58,3.05,5.25,1.69,2.34,3.75,4.79,6.01,7.18l-8.56,8.56Z"/>
      <path class="cls-1" d="M105.9,68.49c-8.05-.44-15.36-3.65-20.99-8.7l8.55-8.55c3.96,3.84,8.32,7.38,12.33,9.9l.11.07v7.27Z"/>
      <path class="cls-1" d="M130.67,59.79c-5.63,5.05-12.95,8.26-20.99,8.7v-7.27l.11-.07c4.02-2.53,8.37-6.06,12.33-9.9l8.55,8.55Z"/>
      <path class="cls-1" d="M142.03,36.13c-.44,8.05-3.65,15.36-8.7,21l-8.56-8.56c2.27-2.39,4.32-4.83,6.01-7.18,1.21-1.67,2.25-3.44,3.05-5.26h8.2Z"/>
      <path class="cls-1" d="M86.87,21.14c-5.33,5.69-2.96,12.6.97,18.05,5.2,7.21,13.79,14.9,19.95,18.78,6.16-3.88,14.75-11.57,19.95-18.78,3.93-5.45,6.3-12.37.97-18.05-7.65-7.65-16.38-1.11-20.62,4.6-.03.04-.29.4-.3.4,0,0-.26-.35-.28-.39-4.24-5.71-12.98-12.27-20.64-4.61"/>
      <path class="cls-1" d="M84.91,8.7C90.54,3.65,97.85.44,105.9,0v18.61c-4.47-3.72-9.94-5.73-15.23-4.14l-5.76-5.77Z"/>
      <path class="cls-1" d="M133.33,11.36c5.05,5.63,8.26,12.95,8.7,20.99h-6.93c1.1-4.72.31-9.56-3.66-13.79l-.04-.04-.04-.04c-.92-.92-1.87-1.69-2.83-2.32l4.8-4.8Z"/>
      <path class="cls-1" d="M109.67,0c8.05.44,15.36,3.65,21,8.7l-5.77,5.77c-5.28-1.59-10.75.41-15.23,4.15V0Z"/>
      <path class="cls-1" d="M1.89,8.63c.89,0,1.61.72,1.61,1.61s-.72,1.61-1.61,1.61-1.61-.72-1.61-1.61.72-1.61,1.61-1.61"/>
      <rect class="cls-1" x=".36" y="12.65" width="3.08" height="11.42"/>
      <g>
        <path class="cls-1" d="M13.89,24.31c-.41,0-.78-.08-1.13-.25-.35-.17-.62-.43-.8-.79l-3.46-7.18c-.03-.09-.11-.13-.22-.13-.07,0-.13.02-.19.08-.06.05-.08.13-.08.23v7.82h-2.94v-8.36c0-.64.09-1.17.28-1.59.19-.42.45-.76.79-1.03.26-.2.55-.37.89-.5.33-.13.7-.2,1.11-.2.72,0,1.31.2,1.77.59.46.39.83.91,1.12,1.54l2.59,5.61c.06.15.15.22.29.22s.23-.07.29-.22l2.59-5.61c.29-.63.66-1.14,1.11-1.54.45-.39,1.04-.59,1.77-.59.41,0,.78.07,1.11.2.33.13.63.3.89.5.34.27.6.61.79,1.03.19.42.28.95.28,1.59v8.36h-2.94v-7.82c0-.1-.03-.18-.08-.23-.06-.05-.12-.08-.19-.08-.11,0-.19.04-.22.13l-3.47,7.18c-.18.36-.44.63-.79.79-.35.17-.73.25-1.13.25"/>
        <path class="cls-1" d="M23.39,13.15c-.05-.09-.08-.18-.11-.25-.03-.08-.05-.16-.08-.25h3.62c.03.15.07.28.12.41l3.41,7.89c.06.12.13.21.21.27.08.06.18.09.28.09s.19-.03.27-.08c.08-.05.15-.14.2-.28l3.38-7.89c.06-.12.1-.26.14-.41h3.57c-.02.09-.05.17-.08.25s-.06.16-.11.25l-4.09,9.06c-.33.71-.76,1.24-1.28,1.58-.53.34-1.2.52-2.01.52-1.58,0-2.68-.7-3.31-2.1l-4.12-9.06Z"/>
        <path class="cls-1" d="M49.68,24.07h-5.98c-1.03,0-1.92-.17-2.67-.5-.75-.33-1.4-.79-1.93-1.36-.46-.51-.82-1.09-1.08-1.74-.26-.65-.39-1.36-.39-2.11,0-.84.16-1.61.49-2.33.33-.72.78-1.35,1.35-1.88.51-.47,1.11-.84,1.8-1.11.69-.26,1.5-.4,2.43-.4h5.98v3.02h-5.98c-.52,0-.95.07-1.28.2-.34.14-.63.32-.88.54-.26.25-.46.54-.62.88-.15.34-.23.7-.23,1.08,0,.35.06.68.19.99.13.31.3.58.53.82.25.27.56.49.93.64.37.16.83.24,1.37.24h5.98v3.01Z"/>
        <path class="cls-1" d="M60.57,18.39c.34,0,.61-.05.82-.14.21-.1.38-.23.5-.4.18-.24.27-.51.27-.81,0-.33-.1-.61-.29-.86-.12-.16-.29-.28-.5-.37-.21-.09-.48-.14-.8-.14h-5.1c-.15,0-.22.08-.22.24v2.48h5.32ZM60.5,12.65c.81,0,1.49.11,2.04.33.55.22,1.01.52,1.39.9.39.39.71.86.93,1.39.22.53.34,1.08.34,1.66,0,.51-.09.99-.26,1.46-.18.47-.42.89-.74,1.28-.39.47-.89.85-1.49,1.12-.6.28-1.34.41-2.21.41h-5.26v2.87h-3.06v-10.71c0-.47.25-.71.74-.71h7.57Z"/>
        <path class="cls-1" d="M6.23,36.79l-1.11-2.58c-.06-.16-.19-.22-.33-.22-.13,0-.25.05-.32.22l-1.1,2.58h2.86ZM9.46,39.18c.05.12.09.21.12.32h-2.17c-.02-.1-.05-.17-.09-.25l-.38-.87H2.67l-.37.86c-.03.09-.06.17-.07.26H0c.03-.11.06-.2.12-.32l2.58-5.71c.41-.89,1.05-1.33,2.09-1.33s1.67.44,2.08,1.33l2.6,5.71Z"/>
        <path class="cls-1" d="M17.42,39.5h-3.77c-1.29,0-2.24-.45-2.9-1.17-.58-.63-.93-1.48-.93-2.43,0-1.04.45-1.99,1.16-2.65.64-.59,1.5-.95,2.66-.95h3.77v1.91h-3.77c-.65,0-1.05.18-1.36.47-.33.31-.53.76-.53,1.24,0,.44.17.84.45,1.14.31.34.77.55,1.45.55h3.77v1.9Z"/>
        <path class="cls-1" d="M22.27,34.2c-.65,0-1.05.18-1.36.47-.33.31-.53.76-.53,1.24,0,.44.17.84.45,1.14.31.34.77.55,1.45.55h1.51c.68,0,1.14-.21,1.45-.55.28-.3.45-.7.45-1.14,0-.48-.2-.93-.53-1.24-.31-.29-.71-.47-1.36-.47h-1.51ZM22.27,39.5c-1.29,0-2.24-.45-2.9-1.17-.58-.63-.93-1.48-.93-2.43,0-1.04.45-1.99,1.16-2.65.64-.59,1.5-.95,2.66-.95h1.51c1.16,0,2.03.36,2.66.95.71.66,1.16,1.61,1.16,2.65,0,.95-.35,1.8-.93,2.43-.66.72-1.61,1.17-2.9,1.17h-1.51Z"/>
        <path class="cls-1" d="M31.34,39.5c-1.77,0-2.35-.78-2.35-2.35v-4.86h1.94v4.68c0,.52.14.68.64.68h5v1.84h-5.23Z"/>
      </g>
      <polygon class="cls-1" points="46.04 32.29 46.04 39.5 44.1 39.5 44.1 36.72 39.8 36.72 39.8 39.5 37.87 39.5 37.87 32.29 39.8 32.29 39.8 34.91 44.1 34.91 44.1 32.29 46.04 32.29"/>
      <g>
        <path class="cls-1" d="M62,35.3c.27,0,.43-.1.54-.23.09-.11.14-.23.14-.37,0-.15-.05-.3-.16-.41-.11-.12-.28-.19-.52-.19h-3.25c-.11,0-.16.06-.16.16v1.04h3.41ZM58.59,39.5h-1.93v-6.76c0-.3.16-.45.48-.45h5.11c.88,0,1.45.27,1.84.68.35.37.58.87.58,1.42,0,.58-.17,1.12-.68,1.49.48.29.69.67.69,1.49v1.44c0,.31,0,.48.03.68h-1.95c-.02-.16-.03-.32-.03-.48v-1.44c0-.46-.22-.64-.79-.64h-3.36v2.56Z"/>
        <path class="cls-1" d="M28.83,46.68l-1.11-2.58c-.06-.16-.19-.22-.33-.22-.13,0-.25.05-.32.22l-1.1,2.58h2.86ZM32.06,49.06c.05.12.09.21.12.32h-2.17c-.02-.1-.05-.17-.09-.25l-.38-.87h-4.26l-.37.86c-.03.09-.06.17-.07.26h-2.23c.03-.11.06-.2.12-.32l2.58-5.71c.41-.89,1.05-1.33,2.09-1.33s1.67.44,2.08,1.33l2.6,5.71Z"/>
        <path class="cls-1" d="M37.77,48.87l-2.19-4.53c-.02-.05-.08-.09-.14-.09-.08,0-.17.06-.17.19v4.93h-1.85v-5.27c0-.81.25-1.31.67-1.65.32-.26.75-.44,1.26-.44.92,0,1.45.54,1.82,1.34l1.63,3.54c.04.11.1.14.18.14s.14-.03.18-.14l1.63-3.54c.37-.8.91-1.34,1.82-1.34.51,0,.94.18,1.26.44.43.34.67.84.67,1.65v5.27h-1.86v-4.93c0-.13-.08-.19-.17-.19-.05,0-.12.03-.14.09l-2.19,4.53c-.22.46-.7.66-1.21.66s-.99-.2-1.21-.66"/>
        <path class="cls-1" d="M52.03,46.68l-1.11-2.58c-.06-.16-.19-.22-.33-.22-.13,0-.25.05-.32.22l-1.1,2.58h2.86ZM55.26,49.06c.05.12.09.21.12.32h-2.17c-.02-.1-.05-.17-.09-.25l-.38-.87h-4.26l-.37.86c-.03.09-.06.17-.08.26h-2.23c.03-.11.06-.2.12-.32l2.58-5.71c.41-.89,1.05-1.33,2.09-1.33s1.67.44,2.08,1.33l2.6,5.71Z"/>
        <path class="cls-1" d="M62,45.18c.27,0,.43-.1.54-.23.09-.11.14-.23.14-.37,0-.15-.05-.3-.16-.41-.11-.12-.28-.19-.52-.19h-3.25c-.11,0-.16.06-.16.16v1.04h3.41ZM58.59,49.38h-1.93v-6.76c0-.3.16-.45.48-.45h5.11c.88,0,1.45.27,1.84.68.35.37.58.87.58,1.42,0,.58-.17,1.12-.68,1.49.48.29.69.67.69,1.49v1.44c0,.31,0,.48.03.68h-1.95c-.02-.16-.03-.32-.03-.48v-1.44c0-.46-.22-.64-.79-.64h-3.36v2.56Z"/>
        <path class="cls-1" d="M23,53.97h-5.18c-.23,0-.36.05-.45.14-.1.1-.15.22-.15.37,0,.16.08.3.18.38.09.07.19.11.42.11h3.17c.81,0,1.35.26,1.74.65.38.4.62.93.62,1.49,0,.52-.2,1.02-.53,1.41-.4.46-.97.75-1.82.75h-5.58v-1.84h5.24c.3,0,.45-.06.54-.18.07-.09.12-.2.12-.33,0-.15-.05-.29-.15-.38-.1-.11-.23-.16-.51-.16h-2.93c-.96,0-1.51-.26-1.9-.65-.38-.39-.61-.92-.61-1.5s.23-1.11.62-1.5.93-.65,1.89-.65h5.29v1.91Z"/>
        <path class="cls-1" d="M32.22,52.06v1.91h-5.48c-.12,0-.17.06-.17.18v.82h5.62v1.39h-5.62v.87c0,.13.05.19.17.19h5.48v1.84h-6.56c-.67,0-1.01-.33-1.01-1v-5.23c0-.65.34-.97,1.02-.97h6.55Z"/>
        <path class="cls-1" d="M38.99,55.07c.27,0,.43-.1.54-.23.09-.11.14-.23.14-.37,0-.15-.05-.3-.16-.41-.11-.12-.28-.19-.52-.19h-3.25c-.11,0-.16.06-.16.16v1.04h3.41ZM35.58,59.27h-1.93v-6.76c0-.3.16-.45.48-.45h5.11c.88,0,1.45.27,1.84.68.35.37.58.87.58,1.42,0,.58-.17,1.12-.68,1.49.48.29.69.67.69,1.49v1.44c0,.31,0,.48.03.68h-1.95c-.02-.16-.03-.32-.03-.48v-1.44c0-.46-.22-.64-.79-.64h-3.36v2.56Z"/>
        <path class="cls-1" d="M42.35,52.38c-.05-.12-.09-.21-.12-.32h2.28c.02.1.04.17.07.26l2.15,4.98c.06.16.18.22.31.22s.22-.05.3-.22l2.13-4.98c.03-.07.06-.17.09-.26h2.25c-.03.11-.06.2-.12.32l-2.58,5.71c-.41.89-1.05,1.32-2.08,1.32s-1.68-.43-2.09-1.32l-2.6-5.71Z"/>
      </g>
      <rect class="cls-1" x="53.11" y="52.06" width="1.94" height="7.2"/>
      <path class="cls-1" d="M62,55.07c.27,0,.43-.1.54-.23.09-.11.14-.23.14-.37,0-.15-.05-.3-.16-.41-.11-.12-.28-.19-.52-.19h-3.25c-.11,0-.16.06-.16.16v1.04h3.41ZM58.59,59.27h-1.93v-6.76c0-.3.16-.45.48-.45h5.11c.88,0,1.45.27,1.84.68.35.37.58.87.58,1.42,0,.58-.17,1.12-.68,1.49.48.29.69.67.69,1.49v1.44c0,.31,0,.48.03.68h-1.95c-.02-.16-.03-.32-.03-.48v-1.44c0-.46-.22-.64-.79-.64h-3.36v2.56Z"/>
    </g>
  </g>
</svg>