<?xml version="1.0" encoding="UTF-8"?>
<svg id="Layer_2" data-name="Layer 2" xmlns="http://www.w3.org/2000/svg" viewBox="0 0 141.59 83.54">
  <defs>
    <style>
      .cls-1 {
        fill: #231f20;
      }
    </style>
  </defs>
  <g id="Layer_1-2" data-name="Layer 1">
    <g>
      <path class="cls-1" d="M25.17,65.4c-.51,0-.93.41-.93.91s.42.91.93.91.93-.41.93-.91-.42-.91-.93-.91ZM25.17,67.14c-.47,0-.85-.37-.85-.83s.38-.83.85-.83.85.37.85.83-.38.83-.85.83Z"/>
      <path class="cls-1" d="M25.39,66.42s-.05-.04-.08-.06c.09-.02.16-.05.21-.11.05-.06.07-.13.07-.22,0-.07-.01-.13-.04-.18-.03-.05-.07-.09-.11-.11-.04-.02-.11-.03-.21-.03h-.44v1.19h.13v-.53h.15s.08,0,.1.02c.02.01.05.03.08.07.03.03.06.1.12.2l.13.25h.17l-.17-.32c-.03-.06-.06-.1-.1-.15ZM25.2,66.23h-.28v-.39h.32c.07,0,.12.02.16.05.04.03.06.08.06.14,0,.04,0,.08-.03.11-.02.03-.04.05-.08.07-.03.02-.08.02-.14.02Z"/>
      <path class="cls-1" d="M40.52,21.73h-16.54V3.61l-1.36,1.41v16.71h-3.92c-.2.59-.43,1.12-.67,1.61H6.85l1.44-1.61h10.41c.03-.09.07-.18.1-.28.64-1.95.87-5.77.87-5.77l-.05-15.68h-.42l-.14.89s-.22,1.75-.42,2.71c-.31,1.43-.82,2.5-1.25,3.35-.48.92-.87,1.51-1.9,2.72-.97,1.14-2.76,2.8-3.8,3.81-1.03,1-2.64,2.51-3.41,3.38-.53.62-1.61,1.99-2.07,2.59-.54.7-1.78,3.04-2.07,4.13-.23.84-.52,1.66-.63,2.73-.15,1.38-.12,2.27-.12,3.16s.37,3.4.56,4.19c.24.96.69,2.46,1.12,3.37.64,1.34,2.03,3.12,2.34,3.56.61.82,2.25,1.96,2.69,2.28.46.33,2.23,1.25,3.44,1.85,1.2.61,1.93,1.15,2.39,1.46.45.3,1.39,1.25,1.81,1.85.54.76.94,1.84.94,1.84l-.15-.17s-.52-.82-.93-1.31c-.41-.49-1.79-1.79-2.38-2.16-.64-.41-1.9-1.04-2.68-1.3-.57-.19-3.09-1.27-3.59-1.49-.5-.21-2.12-1.17-3.07-2.03-.49-.44-1.17-1.25-1.58-1.82-.4-.56-1.09-1.79-1.35-2.35-.37-.8-.84-2.1-1.07-2.85-.24-.74-.48-1.82-.63-2.36-.15-.53-.31-1.91-.41-2.87-.1-.97-.19-3.12-.19-3.12l-.12-4.38H.05l.04,4.08s-.04,7.45-.07,7.77c-.03.33-.03,4.73,0,5.34.03.61-.04.4.25,4.82.04.77.6,3.4.67,3.77.11.65.96,2.63,1.44,3.58.54,1.09,1.54,2.11,2.2,2.85.67.74,2.37,1.71,3.63,2.26,1.14.49,2.92.88,4.48,1.12,1.69.27,2.96,1.02,3.7,1.58.79.6,1.28,1.5,1.78,2.38.5.86.94,2.95,1.09,3.76.14.82.35,3.4.42,3.82.07.41.07,1.81.07,1.81h.4s.14-10.79.14-11.43-.03-4.49-.84-7.59c-.76-2.85-1.71-4.25-2.68-5.23-.9-.9-3.39-2.48-3.78-2.76-1.32-.93-2.01-1.58-2.84-2.52-.49-.57-1.41-2.11-1.62-3.23-.23-1.34-.23-2.06.16-3.29.65-2.02,2.52-4.01,3.54-4.87.75-.61,3.24-2.78,3.96-3.55.5-.54,1.22-1.47,1.86-2.76h4.59v43.88l1.36-1.47V23.34h15.25l1.29-1.61Z"/>
      <path class="cls-1" d="M133.04,65.88c.82,0,1.6-.16,2.35-.46.75-.31,1.28-.71,1.58-1.19.13.4.39.78.77,1.13.38.35.81.53,1.29.53.43,0,.82-.06,1.16-.17.34-.11.64-.4.92-.87-.76-.47-1.15-1.64-1.15-3.5v-2.98c0-2.7-.51-4.53-1.52-5.5-1.01-.96-2.61-1.45-4.79-1.45-1.58,0-2.94.27-4.09.8l.72,2.53c.84-.41,1.89-.61,3.15-.61,2.12,0,3.19.82,3.19,2.46-.53-.13-.99-.2-1.38-.2-2.29,0-4.05.45-5.29,1.36-1.24.91-1.86,2.18-1.86,3.79,0,1.38.44,2.44,1.32,3.19.88.75,2.09,1.13,3.63,1.13ZM135.37,58.89c.29,0,.71.06,1.28.17v1.3c0,1.95-1,2.93-3,2.93-1.48,0-2.22-.63-2.22-1.87,0-1.68,1.31-2.53,3.95-2.53Z"/>
      <path class="cls-1" d="M94.74,65.55c.66-.22,1.13-.48,1.4-.77v.84h3.33v-19.85c-.1,0-.19.01-.29.01l-3.04.71v5.58c-.89-.43-1.87-.65-2.96-.65-1.97,0-3.62.69-4.93,2.07s-1.97,3.18-1.97,5.38.57,3.92,1.71,5.16c1.14,1.23,2.71,1.85,4.7,1.85.71,0,1.38-.11,2.04-.33ZM89.76,58.78c0-1.48.36-2.62,1.08-3.42.72-.8,1.75-1.19,3.08-1.19.77,0,1.52.28,2.22.83v7.27c-.14.19-.45.38-.91.56-.47.19-.86.28-1.18.28-2.86,0-4.29-1.45-4.29-4.34Z"/>
      <polygon class="cls-1" points="105.79 65.62 105.79 51.68 100.59 51.68 100.59 54.35 102.42 54.35 102.42 65.62 105.79 65.62"/>
      <path class="cls-1" d="M78.08,65.88c2.12,0,3.8-.66,5.02-1.97,1.22-1.31,1.83-3.07,1.83-5.29s-.6-3.99-1.8-5.27c-1.2-1.28-2.89-1.92-5.06-1.92s-3.72.67-4.98,2c-1.26,1.34-1.89,3.06-1.89,5.19s.61,3.95,1.81,5.28c1.21,1.32,2.89,1.99,5.06,1.99ZM75.6,55.27c.61-.8,1.44-1.2,2.48-1.2,2.26,0,3.39,1.51,3.39,4.54,0,1.47-.31,2.61-.91,3.41-.61.8-1.43,1.2-2.48,1.2-2.27,0-3.4-1.54-3.4-4.61,0-1.43.31-2.55.92-3.35Z"/>
      <path class="cls-1" d="M63.94,64.7c.76.79,1.86,1.18,3.28,1.18s2.53-.13,3.3-.39v-2.99c-.69.43-1.44.63-2.24.63s-1.36-.2-1.68-.62c-.32-.41-.48-1.11-.48-2.11v-6.1h3.92v-2.62h-3.92v-4.03l-3.33,1.2v2.83h-1.65v2.62h1.65v7.05c0,1.45.38,2.57,1.15,3.35Z"/>
      <path class="cls-1" d="M119.35,61.35c0,1.45.38,2.57,1.15,3.35.76.79,1.86,1.18,3.28,1.18s2.53-.13,3.3-.39v-2.99c-.69.43-1.44.63-2.24.63s-1.36-.2-1.68-.62c-.32-.41-.48-1.11-.48-2.11v-6.1h3.92v-2.62h-3.92v-4.03l-3.33,1.2v2.83h-1.65v2.62h1.65v7.05Z"/>
      <path class="cls-1" d="M57.98,62c-.79.77-1.94,1.16-3.46,1.16-1.22,0-2.19-.31-2.91-.92-.72-.61-1.11-1.48-1.17-2.59h10.2c.19-.8.28-1.41.28-1.81,0-1.86-.63-3.4-1.88-4.61-1.26-1.21-2.92-1.81-4.99-1.81-1.95,0-3.61.68-5.01,2.04-1.39,1.36-2.09,3.14-2.09,5.33s.64,3.97,1.9,5.21c1.26,1.24,2.99,1.87,5.17,1.87,2.33,0,4.08-.47,5.25-1.39l-1.29-2.48ZM54.1,54.14c2.08,0,3.23,1.02,3.46,3.05h-7.01c.46-2.03,1.65-3.05,3.55-3.05Z"/>
      <path class="cls-1" d="M104.14,50.05c.53,0,.99-.18,1.36-.55.38-.37.57-.82.57-1.34s-.19-.96-.57-1.33c-.38-.37-.83-.56-1.36-.56s-.99.19-1.37.56c-.38.37-.56.81-.56,1.33s.19.97.56,1.34c.38.37.84.55,1.37.55Z"/>
      <polygon class="cls-1" points="41.54 55.35 43.56 65.63 46.92 65.63 42.93 46.55 41.11 46.55 36.98 59.4 32.75 46.55 30.91 46.55 26.98 65.63 30.32 65.63 32.43 55.35 36.36 65.88 37.61 65.88 41.54 55.35"/>
      <path class="cls-1" d="M117.47,61.71c0-.97-.28-1.8-.83-2.48-.55-.69-1.45-1.27-2.71-1.75-1.25-.48-2.07-.86-2.45-1.15-.38-.28-.57-.61-.57-.96,0-.9.58-1.35,1.75-1.35,1.3,0,2.31.3,3.04.91l.96-2.53c-1.31-.65-2.7-.97-4.19-.97s-2.67.33-3.61,1.01c-.94.67-1.42,1.61-1.42,2.82,0,1.79,1.23,3.19,3.69,4.19,1.13.46,1.89.86,2.28,1.2.39.34.59.77.59,1.3,0,.9-.65,1.36-1.95,1.36s-2.38-.39-3.37-1.16l-1.19,2.59c.9.47,1.63.78,2.21.93.57.16,1.33.23,2.28.23,1.69,0,3.03-.37,4.01-1.11.98-.74,1.47-1.76,1.47-3.05Z"/>
      <path class="cls-1" d="M46.5,40.85c-.51.21-.95.53-1.33.98-.38.44-.57.89-.57,1.35,0,1.6,1.15,2.41,3.44,2.41.37,0,.93-.04,1.67-.13.74-.08,1.29-.13,1.67-.13,1.38,0,2.06.41,2.06,1.23,0,.49-.31.87-.93,1.15-.62.28-1.42.42-2.37.42-1.43,0-2.73-.52-3.9-1.56l-2.11,2.54c1.77,1.26,3.75,1.88,5.94,1.88,1.83,0,3.39-.4,4.69-1.2,1.3-.8,1.95-1.91,1.95-3.31,0-2.54-1.63-3.81-4.87-3.81-.46,0-1.02.07-1.67.2-.65.13-1.11.2-1.38.2-.61,0-.93-.17-.93-.52,0-.2.21-.39.62-.58.41-.19.65-.28.71-.28l.55.07c.4.04.72.07.96.07,1.52,0,2.76-.47,3.75-1.42s1.49-2.22,1.49-3.81c0-1.11-.28-2.07-.83-2.89l1.59-1.13-2.31-2.04-1.31,1.48c-.86-.47-1.93-.7-3.21-.7-1.64,0-3.01.49-4.13,1.46-1.12.98-1.68,2.21-1.68,3.7,0,1.89.81,3.35,2.44,4.38ZM48.17,34.67c.48-.47,1.1-.71,1.87-.71s1.32.24,1.78.73c.46.49.69,1.08.69,1.79,0,.85-.21,1.52-.64,2-.42.48-1.03.73-1.83.73s-1.42-.25-1.89-.75c-.47-.5-.7-1.16-.7-1.99,0-.74.24-1.34.72-1.81Z"/>
      <path class="cls-1" d="M84.92,29.96c.53,0,.99-.18,1.36-.55.38-.37.56-.82.56-1.34s-.19-.96-.56-1.33c-.38-.37-.83-.56-1.36-.56s-.99.19-1.37.56c-.38.37-.56.81-.56,1.33s.19.97.56,1.34c.38.37.83.55,1.37.55Z"/>
      <path class="cls-1" d="M68.3,43.91c1.26,1.24,2.99,1.87,5.17,1.87,2.33,0,4.08-.47,5.25-1.39l-1.29-2.48c-.79.77-1.94,1.16-3.46,1.16-1.22,0-2.19-.31-2.91-.93-.72-.61-1.11-1.48-1.17-2.59h10.2c.19-.8.28-1.41.28-1.81,0-1.87-.63-3.4-1.88-4.61-1.26-1.21-2.92-1.81-4.99-1.81-1.95,0-3.61.68-5.01,2.04-1.39,1.36-2.09,3.14-2.09,5.33s.64,3.97,1.9,5.21ZM73.55,34.04c2.08,0,3.24,1.02,3.46,3.06h-7.01c.46-2.03,1.65-3.06,3.55-3.06Z"/>
      <path class="cls-1" d="M60.94,37.58c0-.99.3-1.82.9-2.51.6-.68,1.28-1.03,2.06-1.03.71,0,1.36.19,1.96.57l1.42-2.79c-.61-.34-1.48-.51-2.62-.51-1.55,0-2.79.51-3.72,1.53v-1.28h-3.33v13.94h3.33v-7.94Z"/>
      <path class="cls-1" d="M93.18,45.78c.82,0,1.6-.16,2.35-.46.75-.31,1.28-.71,1.59-1.19.13.4.39.78.77,1.13.38.35.81.52,1.29.52h0l.29-.07v.06c.31-.02.6-.07.86-.15.34-.11.64-.4.92-.87-.76-.48-1.15-1.64-1.15-3.5v-2.98c0-2.7-.51-4.53-1.52-5.5-1.02-.96-2.61-1.45-4.79-1.45-1.58,0-2.95.27-4.09.8l.72,2.53c.84-.41,1.89-.61,3.14-.61,2.13,0,3.19.82,3.19,2.46-.53-.13-.99-.2-1.38-.2-2.29,0-4.05.45-5.29,1.36-1.24.91-1.86,2.18-1.86,3.79,0,1.38.44,2.44,1.32,3.19.88.75,2.09,1.13,3.63,1.13ZM95.51,38.79c.29,0,.71.06,1.28.17v1.3c0,1.96-1,2.93-3,2.93-1.48,0-2.22-.63-2.22-1.87,0-1.68,1.32-2.53,3.95-2.53Z"/>
      <rect class="cls-1" x="39.47" y="26.45" width="3.47" height="19.06"/>
      <path class="cls-1" d="M83.35,45.24c0,1.07-.31,1.81-.94,2.22-.62.41-1.83.62-3.6.62v2.9c2.69,0,4.67-.47,5.95-1.39,1.28-.93,1.92-2.4,1.92-4.39v-13.61h-5.91v2.68h2.58v10.98Z"/>
      <path class="cls-1" d="M31.49,72.86c-1.29,0-2.4.46-3.35,1.37-1.05,1.02-1.58,2.38-1.58,4.07s.51,2.92,1.54,3.89c.92.87,2.04,1.31,3.36,1.31.92,0,1.75-.13,2.49-.4.6-.2,1.04-.45,1.33-.73l-.79-1.31c-.71.61-1.6.91-2.67.91-.93,0-1.7-.28-2.3-.84-.67-.64-1.01-1.57-1.01-2.77h7.57c.1-.34.15-.71.15-1.11,0-1.31-.41-2.36-1.24-3.15-.85-.82-2.02-1.23-3.52-1.23ZM28.58,77.03c.07-.74.38-1.36.91-1.86.56-.52,1.26-.79,2.09-.79.89,0,1.59.27,2.11.8.47.49.71,1.1.71,1.84h-5.82Z"/>
      <path class="cls-1" d="M47.74,72.86c-.6,0-1.19.13-1.76.39-.57.26-.96.59-1.17.98-.6-.91-1.66-1.37-3.16-1.37-1.08,0-1.98.46-2.7,1.38l-.62-1.19h-1.22v10.25h1.86v-7.56c.18-.34.48-.65.9-.93s.82-.42,1.19-.42c.64,0,1.16.15,1.54.44.39.29.58.69.58,1.19v7.29h1.86v-7.58c.14-.34.41-.65.8-.92.39-.27.81-.41,1.26-.41,1.43,0,2.15.81,2.15,2.42v6.49h1.86v-6.85c0-1.14-.3-2.02-.89-2.65-.6-.63-1.44-.94-2.52-.94Z"/>
      <polygon class="cls-1" points="65.93 69.28 62.37 79.61 58.67 69.28 56.49 69.28 61.85 83.49 62.84 83.49 68.04 69.28 65.93 69.28"/>
      <polygon class="cls-1" points="67.5 74.58 68.94 74.58 68.94 83.3 70.81 83.3 70.81 73.05 67.5 73.05 67.5 74.58"/>
      <path class="cls-1" d="M69.96,69.17c-.32,0-.59.11-.81.33-.22.22-.33.48-.33.79s.11.58.34.8c.23.22.5.33.81.33s.59-.11.82-.33c.23-.22.34-.49.34-.8s-.11-.57-.34-.79c-.23-.22-.5-.33-.82-.33Z"/>
      <path class="cls-1" d="M74.7,80.09v-11.25h-1.86v11.56c0,2.06,1.21,3.09,3.62,3.09v-1.63c-.52,0-.95-.16-1.27-.47-.32-.32-.48-.75-.48-1.3Z"/>
      <path class="cls-1" d="M85.15,80.77v-3.68c0-1.47-.34-2.55-1.03-3.23-.69-.68-1.8-1.02-3.32-1.02-.57,0-1.17.1-1.79.3-.62.2-1.11.44-1.47.72l.79,1.52c.63-.61,1.52-.92,2.69-.92,1.52,0,2.28.83,2.28,2.49-.5-.17-.94-.25-1.33-.25-1.45,0-2.63.36-3.57,1.08-.93.72-1.4,1.6-1.4,2.64,0,.87.3,1.59.91,2.18.6.58,1.32.88,2.14.88,1.54,0,2.68-.46,3.42-1.37.16.49.43.83.81,1.04.38.21.94.32,1.7.32v-.91c-.55-.3-.83-.9-.83-1.8ZM83.29,80.74c-.73.87-1.56,1.31-2.5,1.31-1.29,0-1.93-.53-1.93-1.6,0-.64.3-1.2.89-1.67.6-.47,1.36-.71,2.31-.71.23,0,.65.06,1.24.19v2.48Z"/>
      <path class="cls-1" d="M97.68,81.82c-1.24,0-2.24-.5-3.03-1.49-.78-.99-1.17-2.29-1.17-3.88s.38-3.04,1.14-4.1c.76-1.06,1.77-1.59,3.04-1.59,1.35,0,2.33.22,2.96.67l.66-1.64c-.88-.5-2.11-.76-3.67-.76-1.83,0-3.31.69-4.46,2.08-1.15,1.38-1.73,3.12-1.73,5.22s.54,3.91,1.62,5.23c1.08,1.32,2.56,1.98,4.44,1.98s3.26-.55,4.39-1.66l-1.08-1.46c-.73.93-1.76,1.4-3.11,1.4Z"/>
      <path class="cls-1" d="M106.97,72.86c-1.43,0-2.58.49-3.45,1.46-.87.97-1.31,2.25-1.31,3.83s.42,2.93,1.26,3.9c.84.96,2,1.45,3.5,1.45s2.62-.48,3.47-1.43c.85-.95,1.27-2.26,1.27-3.91s-.42-2.96-1.25-3.89c-.83-.94-2-1.4-3.5-1.4ZM109.01,80.98c-.49.69-1.18,1.03-2.05,1.03-1.86,0-2.8-1.29-2.8-3.86,0-1.19.25-2.12.76-2.8.51-.68,1.18-1.01,2.03-1.01,1.86,0,2.79,1.27,2.79,3.81,0,1.19-.25,2.13-.74,2.82Z"/>
      <path class="cls-1" d="M117.47,72.86c-1.39,0-2.4.5-3.01,1.51l-.59-1.32h-1.28v10.25h1.86v-7.62c.25-.36.6-.67,1.07-.92.46-.25.91-.37,1.33-.37.79,0,1.36.22,1.69.66.34.44.5,1.2.5,2.29v5.96h1.86v-6.35c0-2.73-1.15-4.1-3.45-4.1Z"/>
      <path class="cls-1" d="M129.15,73.6c-.56-.5-1.39-.75-2.47-.75-1.3,0-2.42.54-3.36,1.63-.94,1.09-1.41,2.4-1.41,3.94s.41,2.76,1.23,3.68c.82.92,1.88,1.38,3.2,1.38,1.24,0,2.18-.32,2.82-.95v.76h1.86v-14.45h-1.86v4.76ZM129.15,81.11c-.1.2-.36.4-.77.58-.41.18-.77.27-1.06.27-2.3,0-3.45-1.23-3.45-3.7,0-1.12.31-2.05.93-2.78.62-.73,1.43-1.09,2.43-1.09.82,0,1.46.34,1.93,1.03v5.69Z"/>
      <path class="cls-1" d="M141.59,77.24c0-1.31-.41-2.36-1.24-3.15-.85-.82-2.02-1.23-3.52-1.23-1.29,0-2.4.46-3.35,1.37-1.05,1.02-1.58,2.38-1.58,4.07s.51,2.92,1.54,3.89c.92.87,2.04,1.31,3.36,1.31.92,0,1.75-.13,2.49-.4.6-.2,1.04-.45,1.33-.73l-.79-1.31c-.71.61-1.6.91-2.67.91-.93,0-1.7-.28-2.3-.84-.67-.64-1.01-1.57-1.01-2.77h7.57c.1-.34.15-.71.15-1.11ZM133.92,77.03c.07-.74.38-1.36.91-1.86.56-.52,1.26-.79,2.09-.79.89,0,1.59.27,2.11.8.47.49.71,1.1.71,1.84h-5.82Z"/>
    </g>
  </g>
</svg>