<?xml version="1.0" encoding="UTF-8"?>
<svg id="Layer_2" xmlns="http://www.w3.org/2000/svg" version="1.1" viewBox="0 0 535.7 84">
  <!-- Generator: Adobe Illustrator 30.1.0, SVG Export Plug-In . SVG Version: 2.1.1 Build 136)  -->
  <g id="Layer_1-2">
    <g>
      <path d="M227.8,29.7c1.1,0,2.4-.2,3.4-.6v-.5c-6.4-1.4-8.4-5.9-8.4-10.4s2.7-11.5,10.6-14.3c5.9-2.1,13.7-2.5,23.8-2.5V0c-8,0-19.2.3-26.4,2.6-9.9,3.1-14.3,9.1-14.3,16s5.3,11.1,11.3,11.1"/>
      <path d="M167.2,48.5c0-12.7-7.5-17.5-17.5-17.5s-16.4,3.5-20.6,8.8h-.1c-.1-3-1.2-5.5-4.4-6.4-3.3-1-6.5-1-14.5-1h-1c-11,0-25.7.5-35.4,3.6-13.6,4.3-19.7,12.6-19.7,22s7.3,15.2,15.6,15.2,3.3-.2,4.7-.8v-.7c-8.9-1.9-11.5-8.1-11.5-14.4s3.7-15.9,14.6-19.7c8.1-2.8,18.8-3.4,32.6-3.4,4.8,0,7.8,0,9.5,1.5,2.1,1.8,2.3,5.5,2.3,12.6v10.2c0,17.1-.7,20.5-1.4,22-.6.3-1.3.6-2.2.8h14.8c-.9-.2-1.7-.4-2.3-.8-.8-1.5-1.4-4.9-1.4-22.5v-11.2c0-5.9,6.4-11.8,16.6-11.8s13.8,5.6,13.8,15.9l7.7-2.6h0Z"/>
      <path d="M88.1,43.1c-1.5,0-3.3.2-4.7.8v.7c8.9,1.9,11.5,8.1,11.5,14.4s-3.7,15.9-14.6,19.7c-8,2.8-18.5,3.4-33.1,3.4-28.8,0-39-12.2-39-26.1s9.6-22.5,21.7-22.5,3,.1,3.8.2l4.7,14.1h1.6l1.8-15.9c-4-.7-7.5-1-11.6-1-16.2,0-30.4,9.9-30.4,26.4s10.1,26.5,46.6,26.6h1c11.9,0,26.7-.5,36.4-3.6,13.6-4.3,19.7-12.6,19.7-22s-7.3-15.2-15.6-15.2"/>
      <path d="M173.2,53.8c-6-13.2-9-16.8-10.7-18.1-1-.7-2-1.1-3.3-1.3v47h25.4c-3.9-10.5-6-15.9-11.4-27.6M188.8,72.2c5.5-14.4,10.1-26.2,15.4-39h-34.6c1.8.7,2.7,1.6,3.6,3.2,2.3,4.4,5,10,7.8,16.3,2.7,6,5.2,12.7,7.7,19.5h.2ZM226.9,80.6c.8-1.5,1.4-4.9,1.4-19.4v-5.4c0-15.3-.7-18.8-1.4-20.3-1.8-1-4.8-1.3-8.6-1.3h-.9c-3.1,0-5.5.3-7.6,1-4.9,6-12.3,23.5-21.4,46.3h35.7c1.1-.2,2-.5,2.7-.9M259.6,33.2h-17.2c7-3.4,10.2-8.6,10.2-14.4s-5.3-11.1-11.3-11.1-2.4.2-3.4.6v.5c6.4,1.4,8.4,5.9,8.4,10.4s-2.5,11.1-9.7,14h-.1c-.3,3.4-.6,8.3-.6,22.6v5.3c0,14.6.7,18,1.4,19.5.7.4,1.6.7,2.7.9h14.8c.6-1.2,1.2-3.9,1.2-16.2v-7.4c0-12.7-.4-16.7-.7-20.6l7.9,3.1c-.3,3.9-.4,7.7-.4,17.3v6.8c0,11.4.2,14.9,1.2,16.8h7.5c15.4-2.8,21.4-12.3,21.4-23.5s-6.2-22.2-33.1-24.7M344.7,81.4c-.4-2.8-.6-6.6-.6-13s.3-14.8.3-19.3c0-10.5-4.9-15.8-13.9-15.8s-6,.7-8.8,1.8l-4.4,15.4h-1.9l-2.3-14.4c1.7-1,3.9-2,6.4-2.8h-48.4c22.4,4.1,29.4,14.4,29.4,24.4s-7.1,19.4-22.3,23.8h28.7c7.1-1.1,10.1-4.2,10.1-9.8s-2.2-7.2-6.6-8.9v-.5c-.1,0,25.9-7.9,25.9-7.9l.5,1.4-14.7,6.1c1.6,2.2,2.5,4.9,2.5,7.7,0,4.9-1.8,9.3-8,11.8h28,0ZM522.5,65c-.2.4-.5.7-.8,1,.3-.3.5-.7.8-1M535.7,81.4v-48.2h-190.8c4.7,2.5,7.1,7,7.1,13.6s-.3,10.7-.3,13.5c0,15.4,1,18.7,1.8,20.3.4.2.9.6,1.5.9h180.8,0Z"/>
    </g>
  </g>
</svg>